<?xml version="1.0"?>
<svg width="640" height="480" xmlns="http://www.w3.org/2000/svg" xmlns:svg="http://www.w3.org/2000/svg">
 <!-- Created with SVG-edit - https://github.com/SVG-Edit/svgedit-->
 <g class="layer">
  <title>Layer 1</title>
  <path d="m68.5,159.5c1.800003,0 2.684616,-0.015503 3.543335,0.222168c0.763931,0.211441 1.371521,0.497009 2.029999,0.920502c1.213226,0.780289 1.604706,1.196121 2.054497,1.5905c0.98378,0.862579 1.500237,1.346893 2.052666,1.841995c0.576851,0.516983 1.815903,1.595856 2.484337,2.146332c0.69014,0.568359 1.412346,1.139984 2.164497,1.714508c0.771454,0.589264 1.571526,1.179047 2.398506,1.768494c0.843651,0.601318 2.603172,1.799042 3.514496,2.39534c0.92067,0.602417 1.853676,1.196182 2.787003,1.78949c0.928673,0.590363 1.849648,1.172104 2.750999,1.75351c0.882614,0.569321 2.556885,1.684967 3.333496,2.235489c0.747276,0.529724 1.455811,1.056335 2.1315,1.575012c0.653236,0.50145 1.277321,0.998367 1.879501,1.485001c0.585793,0.473404 1.708244,1.395309 2.253334,1.839996c0.533585,0.435303 1.056023,0.859558 1.564499,1.274994c0.495186,0.404572 0.975716,0.798752 1.438499,1.184998c0.447853,0.373795 1.286873,1.09346 1.676498,1.440506c0.378342,0.337006 0.745598,0.673447 1.113007,1.0065c0.37059,0.335938 0.750031,0.678253 1.148994,1.024506c0.416962,0.361862 1.345154,1.125839 1.865837,1.533157c0.549896,0.430161 1.130325,0.870483 1.726501,1.32901c0.609512,0.468796 1.225899,0.945297 1.834496,1.436996c0.606087,0.48967 1.760002,1.484116 2.288834,1.990829c0.513733,0.492249 1.002823,0.983017 1.881332,1.97934c0.422226,0.478851 0.820602,0.957397 1.916672,2.354156c0.347527,0.442871 1.004486,1.300903 1.32,1.709335c0.599022,0.775421 0.868942,1.151672 1.68,2.124008c0.700325,0.839584 1.173035,1.327698 1.619331,1.838669c0.982841,1.125275 1.23645,1.460022 1.772659,2.155991c0.554672,0.719925 1.096024,1.452179 1.85318,2.516998c0.467636,0.657654 0.892715,1.285782 1.316986,1.860001c0.593506,0.803253 1.19043,1.508987 1.768509,2.115005c0.658585,0.690414 1.363556,1.311554 1.835999,2.013336c0.536819,0.797409 0.567261,1.793045 1.052673,2.471664c0.548416,0.766693 1.159027,1.333405 1.521988,1.96167c0.488571,0.845673 1.096527,1.419434 1.400009,2.250656c0.287506,0.787445 0.901382,1.260086 1.425323,2.021332c0.472275,0.686188 0.773911,1.540878 1.200012,2.292007c0.471527,0.831207 1.197891,1.483078 1.379166,2.335999c0.189377,0.890991 0.021423,1.821335 0.020828,2.674667c-0.000671,0.940002 -0.074112,1.919464 -0.682663,2.425339c-0.765381,0.636261 -1.601288,0.807388 -2.174667,1.035995c-1.312332,0.523224 -2.031708,0.848434 -2.408829,1.025665c-0.798569,0.375305 -1.652954,0.799454 -2.105835,1.024994c-1.471725,0.73291 -1.996872,0.998306 -2.537842,1.266006c-1.110016,0.549301 -1.673965,0.825211 -2.242004,1.094666c-1.677017,0.795486 -2.224365,1.0354 -2.760162,1.264664c-1.026955,0.439438 -1.515945,0.652969 -2.469162,0.969177c-1.273796,0.422562 -2.044983,0.562088 -2.736168,0.657486c-0.914352,0.126205 -1.966026,0.267014 -2.646667,0.486679c-0.84111,0.271454 -1.83033,0.538193 -2.578835,0.57016c-1.009689,0.043121 -1.771042,0.393921 -2.304497,1.057175c-0.463142,0.575836 -0.352669,1.547333 -0.352669,2.447327c0,0.899994 0.004501,1.795502 0.5,2.5l0.52533,0.574661l0.679169,0.420837l0.8955,0.004501" fill="none" id="svg_5" stroke="#000000" stroke-width="0"/>
  <rect fill="#ffffff" height="205.999995" id="svg_7" stroke="#333333" stroke-width="5" width="479.999989" x="79.5" y="59.500005"/>
  <rect fill="#7f7f7f" height="9" id="svg_8" stroke="#333333" stroke-width="0" width="61" x="286.5" y="265.5"/>
  <rect fill="#3f3f3f" height="189" id="svg_10" stroke="#333333" stroke-width="0" width="7" x="313.5" y="273.5"/>
  <rect fill="#3f3f3f" height="9" id="svg_11" stroke="#333333" stroke-width="0" width="48" x="292.5" y="455.5"/>
  <rect fill="#3f3f3f" height="1" id="svg_12" stroke="#333333" stroke-width="0" width="0" x="240.5" y="403.5"/>
  <text fill="#ffffff" font-family="Monospace" font-size="21" id="svg_13" stroke="#333333" stroke-width="0" text-anchor="middle" x="123.5" xml:space="preserve" y="83.5"/>
  <text fill="#000000" font-family="Cursive" font-size="19" id="svg_15" stroke="#333333" stroke-width="0" text-anchor="middle" x="315.5" xml:space="preserve" y="91.5">what we give you</text>
  <text fill="#000000" font-family="Times" font-size="14" id="svg_16" stroke="#333333" stroke-width="0" text-anchor="middle" x="169.445313" xml:space="preserve" y="135">1. Reliable service</text>
  <text fill="#000000" font-family="Times" font-size="14" id="svg_17" stroke="#333333" stroke-width="0" text-anchor="middle" transform="matrix(1 0 0 0.933333 -15 8.93333)" x="170.101563" xml:space="preserve" y="161">2. Scalability</text>
  <text fill="#000000" font-family="Times" font-size="14" id="svg_18" stroke="#333333" stroke-width="0" text-anchor="middle" x="202.101563" xml:space="preserve" y="184">3. Efficient data management</text>
  <text fill="#000000" font-family="Times" font-size="14" id="svg_19" stroke="#333333" stroke-width="0" style="cursor: move;" text-anchor="middle" x="402.101563" xml:space="preserve" y="131">Resources:</text>
  <text fill="#000000" font-family="Times" font-size="14" id="svg_20" stroke="#333333" stroke-width="0" text-anchor="middle" x="169.101563" xml:space="preserve" y="208">4. Cost efficiency</text>
  <text fill="#000000" font-family="Times" font-size="14" id="svg_21" stroke="#333333" stroke-width="0" text-anchor="middle" x="417.101563" xml:space="preserve" y="158">videos, pictures, online quizes,</text>
  <text fill="#000000" font-family="Times" font-size="14" id="svg_22" stroke="#333333" stroke-width="0" text-anchor="middle" x="428.101563" xml:space="preserve" y="178">assessment plateforms, result update</text>
  <text fill="#000000" font-family="Times" font-size="14" id="svg_23" stroke="#333333" stroke-width="0" text-anchor="middle" x="393.101563" xml:space="preserve" y="200">.etc</text>
  <rect fill="#3f3b3b" height="1" id="svg_24" stroke="#333333" stroke-width="0" width="203" x="210.5" y="97.5"/>
 </g>
</svg>